solid Outer Connecting Rod 2 STL
   facet normal 5.815303e-002 0.000000e+000 -9.983077e-001
      outer loop
         vertex 2.778125e+000 0.000000e+000 0.000000e+000
         vertex 3.020254e+000 2.857500e+001 1.057168e-002
         vertex 3.020254e+000 0.000000e+000 1.057168e-002
      endloop
   endfacet
   facet normal 1.160848e-001 0.000000e+000 -9.932393e-001
      outer loop
         vertex 3.020254e+000 0.000000e+000 1.057168e-002
         vertex 3.020254e+000 2.857500e+001 1.057168e-002
         vertex 3.260541e+000 2.857500e+001 4.220591e-002
      endloop
   endfacet
   facet normal 1.449400e-001 0.000000e+000 -9.894404e-001
      outer loop
         vertex 3.020254e+000 0.000000e+000 1.057168e-002
         vertex 3.260541e+000 2.857500e+001 4.220591e-002
         vertex 3.260541e+000 0.000000e+000 4.220591e-002
      endloop
   endfacet
   facet normal 2.022095e-001 0.000000e+000 -9.793423e-001
      outer loop
         vertex 3.260541e+000 0.000000e+000 4.220591e-002
         vertex 3.260541e+000 2.857500e+001 4.220591e-002
         vertex 3.497157e+000 2.857500e+001 9.466242e-002
      endloop
   endfacet
   facet normal 2.306239e-001 0.000000e+000 -9.730430e-001
      outer loop
         vertex 3.260541e+000 0.000000e+000 4.220591e-002
         vertex 3.497157e+000 2.857500e+001 9.466242e-002
         vertex 3.497157e+000 0.000000e+000 9.466242e-002
      endloop
   endfacet
   facet normal 2.867954e-001 0.000000e+000 -9.579919e-001
      outer loop
         vertex 3.497157e+000 0.000000e+000 9.466242e-002
         vertex 3.497157e+000 2.857500e+001 9.466242e-002
         vertex 3.728300e+000 2.857500e+001 1.675414e-001
      endloop
   endfacet
   facet normal 3.145525e-001 0.000000e+000 -9.492401e-001
      outer loop
         vertex 3.497157e+000 0.000000e+000 9.466242e-002
         vertex 3.728300e+000 2.857500e+001 1.675414e-001
         vertex 3.728300e+000 0.000000e+000 1.675414e-001
      endloop
   endfacet
   facet normal 3.691985e-001 0.000000e+000 -9.293506e-001
      outer loop
         vertex 3.728300e+000 0.000000e+000 1.675414e-001
         vertex 3.728300e+000 2.857500e+001 1.675414e-001
         vertex 3.952211e+000 2.857500e+001 2.602886e-001
      endloop
   endfacet
   facet normal 3.960873e-001 0.000000e+000 -9.182128e-001
      outer loop
         vertex 3.728300e+000 0.000000e+000 1.675414e-001
         vertex 3.952211e+000 2.857500e+001 2.602886e-001
         vertex 3.952211e+000 0.000000e+000 2.602886e-001
      endloop
   endfacet
   facet normal 4.487918e-001 0.000000e+000 -8.936363e-001
      outer loop
         vertex 3.952211e+000 0.000000e+000 2.602886e-001
         vertex 3.952211e+000 2.857500e+001 2.602886e-001
         vertex 4.167188e+000 2.857500e+001 3.721982e-001
      endloop
   endfacet
   facet normal 4.746076e-001 0.000000e+000 -8.801975e-001
      outer loop
         vertex 3.952211e+000 0.000000e+000 2.602886e-001
         vertex 4.167188e+000 2.857500e+001 3.721982e-001
         vertex 4.167188e+000 0.000000e+000 3.721982e-001
      endloop
   endfacet
   facet normal 5.249696e-001 0.000000e+000 -8.511210e-001
      outer loop
         vertex 4.167188e+000 0.000000e+000 3.721982e-001
         vertex 4.167188e+000 2.857500e+001 3.721982e-001
         vertex 4.371592e+000 2.857500e+001 5.024183e-001
      endloop
   endfacet
   facet normal 5.495159e-001 0.000000e+000 -8.354833e-001
      outer loop
         vertex 4.167188e+000 0.000000e+000 3.721982e-001
         vertex 4.371592e+000 2.857500e+001 5.024183e-001
         vertex 4.371592e+000 0.000000e+000 5.024183e-001
      endloop
   endfacet
   facet normal 5.971520e-001 0.000000e+000 -8.021281e-001
      outer loop
         vertex 4.371592e+000 0.000000e+000 5.024183e-001
         vertex 4.371592e+000 2.857500e+001 5.024183e-001
         vertex 4.563869e+000 2.857500e+001 6.499577e-001
      endloop
   endfacet
   facet normal 6.202420e-001 0.000000e+000 -7.844105e-001
      outer loop
         vertex 4.371592e+000 0.000000e+000 5.024183e-001
         vertex 4.563869e+000 2.857500e+001 6.499577e-001
         vertex 4.563869e+000 0.000000e+000 6.499577e-001
      endloop
   endfacet
   facet normal 6.647897e-001 0.000000e+000 -7.470305e-001
      outer loop
         vertex 4.563869e+000 0.000000e+000 6.499577e-001
         vertex 4.563869e+000 2.857500e+001 6.499577e-001
         vertex 4.742556e+000 2.857500e+001 8.136940e-001
      endloop
   endfacet
   facet normal 6.862476e-001 0.000000e+000 -7.273681e-001
      outer loop
         vertex 4.563869e+000 0.000000e+000 6.499577e-001
         vertex 4.742556e+000 2.857500e+001 8.136940e-001
         vertex 4.742556e+000 0.000000e+000 8.136940e-001
      endloop
   endfacet
   facet normal 7.273681e-001 0.000000e+000 -6.862476e-001
      outer loop
         vertex 4.742556e+000 0.000000e+000 8.136940e-001
         vertex 4.742556e+000 2.857500e+001 8.136940e-001
         vertex 4.906292e+000 2.857500e+001 9.923807e-001
      endloop
   endfacet
   facet normal 7.470305e-001 0.000000e+000 -6.647897e-001
      outer loop
         vertex 4.742556e+000 0.000000e+000 8.136940e-001
         vertex 4.906292e+000 2.857500e+001 9.923807e-001
         vertex 4.906292e+000 0.000000e+000 9.923807e-001
      endloop
   endfacet
   facet normal 7.844105e-001 0.000000e+000 -6.202419e-001
      outer loop
         vertex 4.906292e+000 0.000000e+000 9.923807e-001
         vertex 4.906292e+000 2.857500e+001 9.923807e-001
         vertex 5.053832e+000 2.857500e+001 1.184658e+000
      endloop
   endfacet
   facet normal 8.021281e-001 0.000000e+000 -5.971520e-001
      outer loop
         vertex 4.906292e+000 0.000000e+000 9.923807e-001
         vertex 5.053832e+000 2.857500e+001 1.184658e+000
         vertex 5.053832e+000 0.000000e+000 1.184658e+000
      endloop
   endfacet
   facet normal 8.354833e-001 0.000000e+000 -5.495159e-001
      outer loop
         vertex 5.053832e+000 0.000000e+000 1.184658e+000
         vertex 5.053832e+000 2.857500e+001 1.184658e+000
         vertex 5.184052e+000 2.857500e+001 1.389063e+000
      endloop
   endfacet
   facet normal 8.511210e-001 0.000000e+000 -5.249696e-001
      outer loop
         vertex 5.053832e+000 0.000000e+000 1.184658e+000
         vertex 5.184052e+000 2.857500e+001 1.389063e+000
         vertex 5.184052e+000 0.000000e+000 1.389063e+000
      endloop
   endfacet
   facet normal 8.801975e-001 0.000000e+000 -4.746076e-001
      outer loop
         vertex 5.184052e+000 0.000000e+000 1.389063e+000
         vertex 5.184052e+000 2.857500e+001 1.389063e+000
         vertex 5.295961e+000 2.857500e+001 1.604039e+000
      endloop
   endfacet
   facet normal 8.936363e-001 0.000000e+000 -4.487919e-001
      outer loop
         vertex 5.184052e+000 0.000000e+000 1.389063e+000
         vertex 5.295961e+000 2.857500e+001 1.604039e+000
         vertex 5.295961e+000 0.000000e+000 1.604039e+000
      endloop
   endfacet
   facet normal 9.182128e-001 0.000000e+000 -3.960873e-001
      outer loop
         vertex 5.295961e+000 0.000000e+000 1.604039e+000
         vertex 5.295961e+000 2.857500e+001 1.604039e+000
         vertex 5.388709e+000 2.857500e+001 1.827950e+000
      endloop
   endfacet
   facet normal 9.293506e-001 0.000000e+000 -3.691985e-001
      outer loop
         vertex 5.295961e+000 0.000000e+000 1.604039e+000
         vertex 5.388709e+000 2.857500e+001 1.827950e+000
         vertex 5.388709e+000 0.000000e+000 1.827950e+000
      endloop
   endfacet
   facet normal 9.492401e-001 0.000000e+000 -3.145525e-001
      outer loop
         vertex 5.388709e+000 0.000000e+000 1.827950e+000
         vertex 5.388709e+000 2.857500e+001 1.827950e+000
         vertex 5.461587e+000 2.857500e+001 2.059093e+000
      endloop
   endfacet
   facet normal 9.579919e-001 0.000000e+000 -2.867954e-001
      outer loop
         vertex 5.388709e+000 0.000000e+000 1.827950e+000
         vertex 5.461587e+000 2.857500e+001 2.059093e+000
         vertex 5.461587e+000 0.000000e+000 2.059093e+000
      endloop
   endfacet
   facet normal 9.730430e-001 0.000000e+000 -2.306239e-001
      outer loop
         vertex 5.461587e+000 0.000000e+000 2.059093e+000
         vertex 5.461587e+000 2.857500e+001 2.059093e+000
         vertex 5.514044e+000 2.857500e+001 2.295709e+000
      endloop
   endfacet
   facet normal 9.793423e-001 0.000000e+000 -2.022095e-001
      outer loop
         vertex 5.461587e+000 0.000000e+000 2.059093e+000
         vertex 5.514044e+000 2.857500e+001 2.295709e+000
         vertex 5.514044e+000 0.000000e+000 2.295709e+000
      endloop
   endfacet
   facet normal 9.894404e-001 0.000000e+000 -1.449400e-001
      outer loop
         vertex 5.514044e+000 0.000000e+000 2.295709e+000
         vertex 5.514044e+000 2.857500e+001 2.295709e+000
         vertex 5.545679e+000 2.857500e+001 2.535995e+000
      endloop
   endfacet
   facet normal 9.932393e-001 0.000000e+000 -1.160848e-001
      outer loop
         vertex 5.514044e+000 0.000000e+000 2.295709e+000
         vertex 5.545679e+000 2.857500e+001 2.535995e+000
         vertex 5.545679e+000 0.000000e+000 2.535995e+000
      endloop
   endfacet
   facet normal 9.983077e-001 0.000000e+000 -5.815303e-002
      outer loop
         vertex 5.545679e+000 0.000000e+000 2.535995e+000
         vertex 5.545679e+000 2.857500e+001 2.535995e+000
         vertex 5.556250e+000 2.857500e+001 2.778125e+000
      endloop
   endfacet
   facet normal 9.995772e-001 0.000000e+000 -2.907651e-002
      outer loop
         vertex 5.545679e+000 0.000000e+000 2.535995e+000
         vertex 5.556250e+000 2.857500e+001 2.778125e+000
         vertex 5.556250e+000 0.000000e+000 2.778125e+000
      endloop
   endfacet
   facet normal 9.995772e-001 0.000000e+000 2.907651e-002
      outer loop
         vertex 5.556250e+000 0.000000e+000 2.778125e+000
         vertex 5.556250e+000 2.857500e+001 2.778125e+000
         vertex 5.545679e+000 2.857500e+001 3.020254e+000
      endloop
   endfacet
   facet normal 9.983077e-001 0.000000e+000 5.815303e-002
      outer loop
         vertex 5.556250e+000 0.000000e+000 2.778125e+000
         vertex 5.545679e+000 2.857500e+001 3.020254e+000
         vertex 5.545679e+000 0.000000e+000 3.020254e+000
      endloop
   endfacet
   facet normal 9.932393e-001 0.000000e+000 1.160848e-001
      outer loop
         vertex 5.545679e+000 0.000000e+000 3.020254e+000
         vertex 5.545679e+000 2.857500e+001 3.020254e+000
         vertex 5.514044e+000 2.857500e+001 3.260541e+000
      endloop
   endfacet
   facet normal 9.894404e-001 0.000000e+000 1.449400e-001
      outer loop
         vertex 5.545679e+000 0.000000e+000 3.020254e+000
         vertex 5.514044e+000 2.857500e+001 3.260541e+000
         vertex 5.514044e+000 0.000000e+000 3.260541e+000
      endloop
   endfacet
   facet normal 9.793423e-001 0.000000e+000 2.022095e-001
      outer loop
         vertex 5.514044e+000 0.000000e+000 3.260541e+000
         vertex 5.514044e+000 2.857500e+001 3.260541e+000
         vertex 5.461587e+000 2.857500e+001 3.497157e+000
      endloop
   endfacet
   facet normal 9.730430e-001 0.000000e+000 2.306239e-001
      outer loop
         vertex 5.514044e+000 0.000000e+000 3.260541e+000
         vertex 5.461587e+000 2.857500e+001 3.497157e+000
         vertex 5.461587e+000 0.000000e+000 3.497157e+000
      endloop
   endfacet
   facet normal 9.579919e-001 0.000000e+000 2.867954e-001
      outer loop
         vertex 5.461587e+000 0.000000e+000 3.497157e+000
         vertex 5.461587e+000 2.857500e+001 3.497157e+000
         vertex 5.388709e+000 2.857500e+001 3.728300e+000
      endloop
   endfacet
   facet normal 9.492401e-001 0.000000e+000 3.145525e-001
      outer loop
         vertex 5.461587e+000 0.000000e+000 3.497157e+000
         vertex 5.388709e+000 2.857500e+001 3.728300e+000
         vertex 5.388709e+000 0.000000e+000 3.728300e+000
      endloop
   endfacet
   facet normal 9.293506e-001 0.000000e+000 3.691985e-001
      outer loop
         vertex 5.388709e+000 0.000000e+000 3.728300e+000
         vertex 5.388709e+000 2.857500e+001 3.728300e+000
         vertex 5.295961e+000 2.857500e+001 3.952211e+000
      endloop
   endfacet
   facet normal 9.182128e-001 0.000000e+000 3.960873e-001
      outer loop
         vertex 5.388709e+000 0.000000e+000 3.728300e+000
         vertex 5.295961e+000 2.857500e+001 3.952211e+000
         vertex 5.295961e+000 0.000000e+000 3.952211e+000
      endloop
   endfacet
   facet normal 8.936363e-001 0.000000e+000 4.487918e-001
      outer loop
         vertex 5.295961e+000 0.000000e+000 3.952211e+000
         vertex 5.295961e+000 2.857500e+001 3.952211e+000
         vertex 5.184052e+000 2.857500e+001 4.167188e+000
      endloop
   endfacet
   facet normal 8.801975e-001 0.000000e+000 4.746076e-001
      outer loop
         vertex 5.295961e+000 0.000000e+000 3.952211e+000
         vertex 5.184052e+000 2.857500e+001 4.167188e+000
         vertex 5.184052e+000 0.000000e+000 4.167188e+000
      endloop
   endfacet
   facet normal 8.511210e-001 0.000000e+000 5.249696e-001
      outer loop
         vertex 5.184052e+000 0.000000e+000 4.167188e+000
         vertex 5.184052e+000 2.857500e+001 4.167188e+000
         vertex 5.053832e+000 2.857500e+001 4.371592e+000
      endloop
   endfacet
   facet normal 8.354833e-001 0.000000e+000 5.495159e-001
      outer loop
         vertex 5.184052e+000 0.000000e+000 4.167188e+000
         vertex 5.053832e+000 2.857500e+001 4.371592e+000
         vertex 5.053832e+000 0.000000e+000 4.371592e+000
      endloop
   endfacet
   facet normal 8.021281e-001 0.000000e+000 5.971520e-001
      outer loop
         vertex 5.053832e+000 0.000000e+000 4.371592e+000
         vertex 5.053832e+000 2.857500e+001 4.371592e+000
         vertex 4.906292e+000 2.857500e+001 4.563869e+000
      endloop
   endfacet
   facet normal 7.844105e-001 0.000000e+000 6.202420e-001
      outer loop
         vertex 5.053832e+000 0.000000e+000 4.371592e+000
         vertex 4.906292e+000 2.857500e+001 4.563869e+000
         vertex 4.906292e+000 0.000000e+000 4.563869e+000
      endloop
   endfacet
   facet normal 7.470305e-001 0.000000e+000 6.647897e-001
      outer loop
         vertex 4.906292e+000 0.000000e+000 4.563869e+000
         vertex 4.906292e+000 2.857500e+001 4.563869e+000
         vertex 4.742556e+000 2.857500e+001 4.742556e+000
      endloop
   endfacet
   facet normal 7.273681e-001 0.000000e+000 6.862476e-001
      outer loop
         vertex 4.906292e+000 0.000000e+000 4.563869e+000
         vertex 4.742556e+000 2.857500e+001 4.742556e+000
         vertex 4.742556e+000 0.000000e+000 4.742556e+000
      endloop
   endfacet
   facet normal 6.862476e-001 0.000000e+000 7.273681e-001
      outer loop
         vertex 4.742556e+000 0.000000e+000 4.742556e+000
         vertex 4.742556e+000 2.857500e+001 4.742556e+000
         vertex 4.563869e+000 2.857500e+001 4.906292e+000
      endloop
   endfacet
   facet normal 6.647897e-001 0.000000e+000 7.470305e-001
      outer loop
         vertex 4.742556e+000 0.000000e+000 4.742556e+000
         vertex 4.563869e+000 2.857500e+001 4.906292e+000
         vertex 4.563869e+000 0.000000e+000 4.906292e+000
      endloop
   endfacet
   facet normal 6.202419e-001 0.000000e+000 7.844105e-001
      outer loop
         vertex 4.563869e+000 0.000000e+000 4.906292e+000
         vertex 4.563869e+000 2.857500e+001 4.906292e+000
         vertex 4.371592e+000 2.857500e+001 5.053832e+000
      endloop
   endfacet
   facet normal 5.971520e-001 0.000000e+000 8.021281e-001
      outer loop
         vertex 4.563869e+000 0.000000e+000 4.906292e+000
         vertex 4.371592e+000 2.857500e+001 5.053832e+000
         vertex 4.371592e+000 0.000000e+000 5.053832e+000
      endloop
   endfacet
   facet normal 5.495159e-001 0.000000e+000 8.354833e-001
      outer loop
         vertex 4.371592e+000 0.000000e+000 5.053832e+000
         vertex 4.371592e+000 2.857500e+001 5.053832e+000
         vertex 4.167188e+000 2.857500e+001 5.184052e+000
      endloop
   endfacet
   facet normal 5.249696e-001 0.000000e+000 8.511210e-001
      outer loop
         vertex 4.371592e+000 0.000000e+000 5.053832e+000
         vertex 4.167188e+000 2.857500e+001 5.184052e+000
         vertex 4.167188e+000 0.000000e+000 5.184052e+000
      endloop
   endfacet
   facet normal 4.746076e-001 0.000000e+000 8.801975e-001
      outer loop
         vertex 4.167188e+000 0.000000e+000 5.184052e+000
         vertex 4.167188e+000 2.857500e+001 5.184052e+000
         vertex 3.952211e+000 2.857500e+001 5.295961e+000
      endloop
   endfacet
   facet normal 4.487919e-001 0.000000e+000 8.936363e-001
      outer loop
         vertex 4.167188e+000 0.000000e+000 5.184052e+000
         vertex 3.952211e+000 2.857500e+001 5.295961e+000
         vertex 3.952211e+000 0.000000e+000 5.295961e+000
      endloop
   endfacet
   facet normal 3.960873e-001 0.000000e+000 9.182128e-001
      outer loop
         vertex 3.952211e+000 0.000000e+000 5.295961e+000
         vertex 3.952211e+000 2.857500e+001 5.295961e+000
         vertex 3.728300e+000 2.857500e+001 5.388709e+000
      endloop
   endfacet
   facet normal 3.691985e-001 0.000000e+000 9.293506e-001
      outer loop
         vertex 3.952211e+000 0.000000e+000 5.295961e+000
         vertex 3.728300e+000 2.857500e+001 5.388709e+000
         vertex 3.728300e+000 0.000000e+000 5.388709e+000
      endloop
   endfacet
   facet normal 3.145525e-001 0.000000e+000 9.492401e-001
      outer loop
         vertex 3.728300e+000 0.000000e+000 5.388709e+000
         vertex 3.728300e+000 2.857500e+001 5.388709e+000
         vertex 3.497157e+000 2.857500e+001 5.461587e+000
      endloop
   endfacet
   facet normal 2.867954e-001 0.000000e+000 9.579919e-001
      outer loop
         vertex 3.728300e+000 0.000000e+000 5.388709e+000
         vertex 3.497157e+000 2.857500e+001 5.461587e+000
         vertex 3.497157e+000 0.000000e+000 5.461587e+000
      endloop
   endfacet
   facet normal 2.306239e-001 0.000000e+000 9.730430e-001
      outer loop
         vertex 3.497157e+000 0.000000e+000 5.461587e+000
         vertex 3.497157e+000 2.857500e+001 5.461587e+000
         vertex 3.260541e+000 2.857500e+001 5.514044e+000
      endloop
   endfacet
   facet normal 2.022095e-001 0.000000e+000 9.793423e-001
      outer loop
         vertex 3.497157e+000 0.000000e+000 5.461587e+000
         vertex 3.260541e+000 2.857500e+001 5.514044e+000
         vertex 3.260541e+000 0.000000e+000 5.514044e+000
      endloop
   endfacet
   facet normal 1.449400e-001 0.000000e+000 9.894404e-001
      outer loop
         vertex 3.260541e+000 0.000000e+000 5.514044e+000
         vertex 3.260541e+000 2.857500e+001 5.514044e+000
         vertex 3.020254e+000 2.857500e+001 5.545679e+000
      endloop
   endfacet
   facet normal 1.160848e-001 0.000000e+000 9.932393e-001
      outer loop
         vertex 3.260541e+000 0.000000e+000 5.514044e+000
         vertex 3.020254e+000 2.857500e+001 5.545679e+000
         vertex 3.020254e+000 0.000000e+000 5.545679e+000
      endloop
   endfacet
   facet normal 5.815303e-002 0.000000e+000 9.983077e-001
      outer loop
         vertex 3.020254e+000 0.000000e+000 5.545679e+000
         vertex 3.020254e+000 2.857500e+001 5.545679e+000
         vertex 2.778125e+000 2.857500e+001 5.556250e+000
      endloop
   endfacet
   facet normal 2.907651e-002 0.000000e+000 9.995772e-001
      outer loop
         vertex 3.020254e+000 0.000000e+000 5.545679e+000
         vertex 2.778125e+000 2.857500e+001 5.556250e+000
         vertex 2.778125e+000 0.000000e+000 5.556250e+000
      endloop
   endfacet
   facet normal -2.907651e-002 0.000000e+000 9.995772e-001
      outer loop
         vertex 2.778125e+000 0.000000e+000 5.556250e+000
         vertex 2.778125e+000 2.857500e+001 5.556250e+000
         vertex 2.535995e+000 2.857500e+001 5.545679e+000
      endloop
   endfacet
   facet normal -5.815303e-002 0.000000e+000 9.983077e-001
      outer loop
         vertex 2.778125e+000 0.000000e+000 5.556250e+000
         vertex 2.535995e+000 2.857500e+001 5.545679e+000
         vertex 2.535995e+000 0.000000e+000 5.545679e+000
      endloop
   endfacet
   facet normal -1.160848e-001 0.000000e+000 9.932393e-001
      outer loop
         vertex 2.535995e+000 0.000000e+000 5.545679e+000
         vertex 2.535995e+000 2.857500e+001 5.545679e+000
         vertex 2.295709e+000 2.857500e+001 5.514044e+000
      endloop
   endfacet
   facet normal -1.449400e-001 0.000000e+000 9.894404e-001
      outer loop
         vertex 2.535995e+000 0.000000e+000 5.545679e+000
         vertex 2.295709e+000 2.857500e+001 5.514044e+000
         vertex 2.295709e+000 0.000000e+000 5.514044e+000
      endloop
   endfacet
   facet normal -2.022095e-001 0.000000e+000 9.793423e-001
      outer loop
         vertex 2.295709e+000 0.000000e+000 5.514044e+000
         vertex 2.295709e+000 2.857500e+001 5.514044e+000
         vertex 2.059093e+000 2.857500e+001 5.461587e+000
      endloop
   endfacet
   facet normal -2.306239e-001 0.000000e+000 9.730430e-001
      outer loop
         vertex 2.295709e+000 0.000000e+000 5.514044e+000
         vertex 2.059093e+000 2.857500e+001 5.461587e+000
         vertex 2.059093e+000 0.000000e+000 5.461587e+000
      endloop
   endfacet
   facet normal -2.867954e-001 0.000000e+000 9.579919e-001
      outer loop
         vertex 2.059093e+000 0.000000e+000 5.461587e+000
         vertex 2.059093e+000 2.857500e+001 5.461587e+000
         vertex 1.827950e+000 2.857500e+001 5.388709e+000
      endloop
   endfacet
   facet normal -3.145525e-001 0.000000e+000 9.492401e-001
      outer loop
         vertex 2.059093e+000 0.000000e+000 5.461587e+000
         vertex 1.827950e+000 2.857500e+001 5.388709e+000
         vertex 1.827950e+000 0.000000e+000 5.388709e+000
      endloop
   endfacet
   facet normal -3.691985e-001 0.000000e+000 9.293506e-001
      outer loop
         vertex 1.827950e+000 0.000000e+000 5.388709e+000
         vertex 1.827950e+000 2.857500e+001 5.388709e+000
         vertex 1.604039e+000 2.857500e+001 5.295961e+000
      endloop
   endfacet
   facet normal -3.960873e-001 0.000000e+000 9.182128e-001
      outer loop
         vertex 1.827950e+000 0.000000e+000 5.388709e+000
         vertex 1.604039e+000 2.857500e+001 5.295961e+000
         vertex 1.604039e+000 0.000000e+000 5.295961e+000
      endloop
   endfacet
   facet normal -4.487918e-001 0.000000e+000 8.936363e-001
      outer loop
         vertex 1.604039e+000 0.000000e+000 5.295961e+000
         vertex 1.604039e+000 2.857500e+001 5.295961e+000
         vertex 1.389063e+000 2.857500e+001 5.184052e+000
      endloop
   endfacet
   facet normal -4.746076e-001 0.000000e+000 8.801975e-001
      outer loop
         vertex 1.604039e+000 0.000000e+000 5.295961e+000
         vertex 1.389063e+000 2.857500e+001 5.184052e+000
         vertex 1.389063e+000 0.000000e+000 5.184052e+000
      endloop
   endfacet
   facet normal -5.249696e-001 0.000000e+000 8.511210e-001
      outer loop
         vertex 1.389063e+000 0.000000e+000 5.184052e+000
         vertex 1.389063e+000 2.857500e+001 5.184052e+000
         vertex 1.184658e+000 2.857500e+001 5.053832e+000
      endloop
   endfacet
   facet normal -5.495159e-001 0.000000e+000 8.354833e-001
      outer loop
         vertex 1.389063e+000 0.000000e+000 5.184052e+000
         vertex 1.184658e+000 2.857500e+001 5.053832e+000
         vertex 1.184658e+000 0.000000e+000 5.053832e+000
      endloop
   endfacet
   facet normal -5.971520e-001 0.000000e+000 8.021281e-001
      outer loop
         vertex 1.184658e+000 0.000000e+000 5.053832e+000
         vertex 1.184658e+000 2.857500e+001 5.053832e+000
         vertex 9.923807e-001 2.857500e+001 4.906292e+000
      endloop
   endfacet
   facet normal -6.202420e-001 0.000000e+000 7.844105e-001
      outer loop
         vertex 1.184658e+000 0.000000e+000 5.053832e+000
         vertex 9.923807e-001 2.857500e+001 4.906292e+000
         vertex 9.923807e-001 0.000000e+000 4.906292e+000
      endloop
   endfacet
   facet normal -6.647897e-001 0.000000e+000 7.470305e-001
      outer loop
         vertex 9.923807e-001 0.000000e+000 4.906292e+000
         vertex 9.923807e-001 2.857500e+001 4.906292e+000
         vertex 8.136940e-001 2.857500e+001 4.742556e+000
      endloop
   endfacet
   facet normal -6.862476e-001 0.000000e+000 7.273681e-001
      outer loop
         vertex 9.923807e-001 0.000000e+000 4.906292e+000
         vertex 8.136940e-001 2.857500e+001 4.742556e+000
         vertex 8.136940e-001 0.000000e+000 4.742556e+000
      endloop
   endfacet
   facet normal -7.273681e-001 0.000000e+000 6.862476e-001
      outer loop
         vertex 8.136940e-001 0.000000e+000 4.742556e+000
         vertex 8.136940e-001 2.857500e+001 4.742556e+000
         vertex 6.499577e-001 2.857500e+001 4.563869e+000
      endloop
   endfacet
   facet normal -7.470305e-001 0.000000e+000 6.647897e-001
      outer loop
         vertex 8.136940e-001 0.000000e+000 4.742556e+000
         vertex 6.499577e-001 2.857500e+001 4.563869e+000
         vertex 6.499577e-001 0.000000e+000 4.563869e+000
      endloop
   endfacet
   facet normal -7.844105e-001 0.000000e+000 6.202419e-001
      outer loop
         vertex 6.499577e-001 0.000000e+000 4.563869e+000
         vertex 6.499577e-001 2.857500e+001 4.563869e+000
         vertex 5.024183e-001 2.857500e+001 4.371592e+000
      endloop
   endfacet
   facet normal -8.021281e-001 0.000000e+000 5.971520e-001
      outer loop
         vertex 6.499577e-001 0.000000e+000 4.563869e+000
         vertex 5.024183e-001 2.857500e+001 4.371592e+000
         vertex 5.024183e-001 0.000000e+000 4.371592e+000
      endloop
   endfacet
   facet normal -8.354833e-001 0.000000e+000 5.495159e-001
      outer loop
         vertex 5.024183e-001 0.000000e+000 4.371592e+000
         vertex 5.024183e-001 2.857500e+001 4.371592e+000
         vertex 3.721982e-001 2.857500e+001 4.167188e+000
      endloop
   endfacet
   facet normal -8.511210e-001 0.000000e+000 5.249696e-001
      outer loop
         vertex 5.024183e-001 0.000000e+000 4.371592e+000
         vertex 3.721982e-001 2.857500e+001 4.167188e+000
         vertex 3.721982e-001 0.000000e+000 4.167188e+000
      endloop
   endfacet
   facet normal -8.801975e-001 0.000000e+000 4.746076e-001
      outer loop
         vertex 3.721982e-001 0.000000e+000 4.167188e+000
         vertex 3.721982e-001 2.857500e+001 4.167188e+000
         vertex 2.602886e-001 2.857500e+001 3.952211e+000
      endloop
   endfacet
   facet normal -8.936363e-001 0.000000e+000 4.487919e-001
      outer loop
         vertex 3.721982e-001 0.000000e+000 4.167188e+000
         vertex 2.602886e-001 2.857500e+001 3.952211e+000
         vertex 2.602886e-001 0.000000e+000 3.952211e+000
      endloop
   endfacet
   facet normal -9.182128e-001 0.000000e+000 3.960873e-001
      outer loop
         vertex 2.602886e-001 0.000000e+000 3.952211e+000
         vertex 2.602886e-001 2.857500e+001 3.952211e+000
         vertex 1.675414e-001 2.857500e+001 3.728300e+000
      endloop
   endfacet
   facet normal -9.293506e-001 0.000000e+000 3.691985e-001
      outer loop
         vertex 2.602886e-001 0.000000e+000 3.952211e+000
         vertex 1.675414e-001 2.857500e+001 3.728300e+000
         vertex 1.675414e-001 0.000000e+000 3.728300e+000
      endloop
   endfacet
   facet normal -9.492401e-001 0.000000e+000 3.145525e-001
      outer loop
         vertex 1.675414e-001 0.000000e+000 3.728300e+000
         vertex 1.675414e-001 2.857500e+001 3.728300e+000
         vertex 9.466242e-002 2.857500e+001 3.497157e+000
      endloop
   endfacet
   facet normal -9.579919e-001 0.000000e+000 2.867954e-001
      outer loop
         vertex 1.675414e-001 0.000000e+000 3.728300e+000
         vertex 9.466242e-002 2.857500e+001 3.497157e+000
         vertex 9.466242e-002 0.000000e+000 3.497157e+000
      endloop
   endfacet
   facet normal -9.730430e-001 0.000000e+000 2.306239e-001
      outer loop
         vertex 9.466242e-002 0.000000e+000 3.497157e+000
         vertex 9.466242e-002 2.857500e+001 3.497157e+000
         vertex 4.220591e-002 2.857500e+001 3.260541e+000
      endloop
   endfacet
   facet normal -9.793423e-001 0.000000e+000 2.022095e-001
      outer loop
         vertex 9.466242e-002 0.000000e+000 3.497157e+000
         vertex 4.220591e-002 2.857500e+001 3.260541e+000
         vertex 4.220591e-002 0.000000e+000 3.260541e+000
      endloop
   endfacet
   facet normal -9.894404e-001 0.000000e+000 1.449400e-001
      outer loop
         vertex 4.220591e-002 0.000000e+000 3.260541e+000
         vertex 4.220591e-002 2.857500e+001 3.260541e+000
         vertex 1.057168e-002 2.857500e+001 3.020254e+000
      endloop
   endfacet
   facet normal -9.932393e-001 0.000000e+000 1.160848e-001
      outer loop
         vertex 4.220591e-002 0.000000e+000 3.260541e+000
         vertex 1.057168e-002 2.857500e+001 3.020254e+000
         vertex 1.057168e-002 0.000000e+000 3.020254e+000
      endloop
   endfacet
   facet normal -9.983077e-001 0.000000e+000 5.815303e-002
      outer loop
         vertex 1.057168e-002 0.000000e+000 3.020254e+000
         vertex 1.057168e-002 2.857500e+001 3.020254e+000
         vertex 0.000000e+000 2.857500e+001 2.778125e+000
      endloop
   endfacet
   facet normal -9.995772e-001 0.000000e+000 2.907651e-002
      outer loop
         vertex 1.057168e-002 0.000000e+000 3.020254e+000
         vertex 0.000000e+000 2.857500e+001 2.778125e+000
         vertex 0.000000e+000 0.000000e+000 2.778125e+000
      endloop
   endfacet
   facet normal -9.995772e-001 0.000000e+000 -2.907651e-002
      outer loop
         vertex 0.000000e+000 0.000000e+000 2.778125e+000
         vertex 0.000000e+000 2.857500e+001 2.778125e+000
         vertex 1.057168e-002 2.857500e+001 2.535995e+000
      endloop
   endfacet
   facet normal -9.983077e-001 0.000000e+000 -5.815303e-002
      outer loop
         vertex 0.000000e+000 0.000000e+000 2.778125e+000
         vertex 1.057168e-002 2.857500e+001 2.535995e+000
         vertex 1.057168e-002 0.000000e+000 2.535995e+000
      endloop
   endfacet
   facet normal -9.932393e-001 0.000000e+000 -1.160848e-001
      outer loop
         vertex 1.057168e-002 0.000000e+000 2.535995e+000
         vertex 1.057168e-002 2.857500e+001 2.535995e+000
         vertex 4.220591e-002 2.857500e+001 2.295709e+000
      endloop
   endfacet
   facet normal -9.894404e-001 0.000000e+000 -1.449400e-001
      outer loop
         vertex 1.057168e-002 0.000000e+000 2.535995e+000
         vertex 4.220591e-002 2.857500e+001 2.295709e+000
         vertex 4.220591e-002 0.000000e+000 2.295709e+000
      endloop
   endfacet
   facet normal -9.793423e-001 0.000000e+000 -2.022095e-001
      outer loop
         vertex 4.220591e-002 0.000000e+000 2.295709e+000
         vertex 4.220591e-002 2.857500e+001 2.295709e+000
         vertex 9.466242e-002 2.857500e+001 2.059093e+000
      endloop
   endfacet
   facet normal -9.730430e-001 0.000000e+000 -2.306239e-001
      outer loop
         vertex 4.220591e-002 0.000000e+000 2.295709e+000
         vertex 9.466242e-002 2.857500e+001 2.059093e+000
         vertex 9.466242e-002 0.000000e+000 2.059093e+000
      endloop
   endfacet
   facet normal -9.579919e-001 0.000000e+000 -2.867954e-001
      outer loop
         vertex 9.466242e-002 0.000000e+000 2.059093e+000
         vertex 9.466242e-002 2.857500e+001 2.059093e+000
         vertex 1.675414e-001 2.857500e+001 1.827950e+000
      endloop
   endfacet
   facet normal -9.492401e-001 0.000000e+000 -3.145525e-001
      outer loop
         vertex 9.466242e-002 0.000000e+000 2.059093e+000
         vertex 1.675414e-001 2.857500e+001 1.827950e+000
         vertex 1.675414e-001 0.000000e+000 1.827950e+000
      endloop
   endfacet
   facet normal -9.293506e-001 0.000000e+000 -3.691985e-001
      outer loop
         vertex 1.675414e-001 0.000000e+000 1.827950e+000
         vertex 1.675414e-001 2.857500e+001 1.827950e+000
         vertex 2.602886e-001 2.857500e+001 1.604039e+000
      endloop
   endfacet
   facet normal -9.182128e-001 0.000000e+000 -3.960873e-001
      outer loop
         vertex 1.675414e-001 0.000000e+000 1.827950e+000
         vertex 2.602886e-001 2.857500e+001 1.604039e+000
         vertex 2.602886e-001 0.000000e+000 1.604039e+000
      endloop
   endfacet
   facet normal -8.936363e-001 0.000000e+000 -4.487918e-001
      outer loop
         vertex 2.602886e-001 0.000000e+000 1.604039e+000
         vertex 2.602886e-001 2.857500e+001 1.604039e+000
         vertex 3.721982e-001 2.857500e+001 1.389063e+000
      endloop
   endfacet
   facet normal -8.801975e-001 0.000000e+000 -4.746076e-001
      outer loop
         vertex 2.602886e-001 0.000000e+000 1.604039e+000
         vertex 3.721982e-001 2.857500e+001 1.389063e+000
         vertex 3.721982e-001 0.000000e+000 1.389063e+000
      endloop
   endfacet
   facet normal -8.511210e-001 0.000000e+000 -5.249696e-001
      outer loop
         vertex 3.721982e-001 0.000000e+000 1.389063e+000
         vertex 3.721982e-001 2.857500e+001 1.389063e+000
         vertex 5.024183e-001 2.857500e+001 1.184658e+000
      endloop
   endfacet
   facet normal -8.354833e-001 0.000000e+000 -5.495159e-001
      outer loop
         vertex 3.721982e-001 0.000000e+000 1.389063e+000
         vertex 5.024183e-001 2.857500e+001 1.184658e+000
         vertex 5.024183e-001 0.000000e+000 1.184658e+000
      endloop
   endfacet
   facet normal -8.021281e-001 0.000000e+000 -5.971520e-001
      outer loop
         vertex 5.024183e-001 0.000000e+000 1.184658e+000
         vertex 5.024183e-001 2.857500e+001 1.184658e+000
         vertex 6.499577e-001 2.857500e+001 9.923807e-001
      endloop
   endfacet
   facet normal -7.844105e-001 0.000000e+000 -6.202420e-001
      outer loop
         vertex 5.024183e-001 0.000000e+000 1.184658e+000
         vertex 6.499577e-001 2.857500e+001 9.923807e-001
         vertex 6.499577e-001 0.000000e+000 9.923807e-001
      endloop
   endfacet
   facet normal -7.470305e-001 0.000000e+000 -6.647897e-001
      outer loop
         vertex 6.499577e-001 0.000000e+000 9.923807e-001
         vertex 6.499577e-001 2.857500e+001 9.923807e-001
         vertex 8.136940e-001 2.857500e+001 8.136940e-001
      endloop
   endfacet
   facet normal -7.273681e-001 0.000000e+000 -6.862476e-001
      outer loop
         vertex 6.499577e-001 0.000000e+000 9.923807e-001
         vertex 8.136940e-001 2.857500e+001 8.136940e-001
         vertex 8.136940e-001 0.000000e+000 8.136940e-001
      endloop
   endfacet
   facet normal -6.862476e-001 0.000000e+000 -7.273681e-001
      outer loop
         vertex 8.136940e-001 0.000000e+000 8.136940e-001
         vertex 8.136940e-001 2.857500e+001 8.136940e-001
         vertex 9.923807e-001 2.857500e+001 6.499577e-001
      endloop
   endfacet
   facet normal -6.647897e-001 0.000000e+000 -7.470305e-001
      outer loop
         vertex 8.136940e-001 0.000000e+000 8.136940e-001
         vertex 9.923807e-001 2.857500e+001 6.499577e-001
         vertex 9.923807e-001 0.000000e+000 6.499577e-001
      endloop
   endfacet
   facet normal -6.202419e-001 0.000000e+000 -7.844105e-001
      outer loop
         vertex 9.923807e-001 0.000000e+000 6.499577e-001
         vertex 9.923807e-001 2.857500e+001 6.499577e-001
         vertex 1.184658e+000 2.857500e+001 5.024183e-001
      endloop
   endfacet
   facet normal -5.971520e-001 0.000000e+000 -8.021281e-001
      outer loop
         vertex 9.923807e-001 0.000000e+000 6.499577e-001
         vertex 1.184658e+000 2.857500e+001 5.024183e-001
         vertex 1.184658e+000 0.000000e+000 5.024183e-001
      endloop
   endfacet
   facet normal -5.495159e-001 0.000000e+000 -8.354833e-001
      outer loop
         vertex 1.184658e+000 0.000000e+000 5.024183e-001
         vertex 1.184658e+000 2.857500e+001 5.024183e-001
         vertex 1.389063e+000 2.857500e+001 3.721982e-001
      endloop
   endfacet
   facet normal -5.249696e-001 0.000000e+000 -8.511210e-001
      outer loop
         vertex 1.184658e+000 0.000000e+000 5.024183e-001
         vertex 1.389063e+000 2.857500e+001 3.721982e-001
         vertex 1.389063e+000 0.000000e+000 3.721982e-001
      endloop
   endfacet
   facet normal -4.746076e-001 0.000000e+000 -8.801975e-001
      outer loop
         vertex 1.389063e+000 0.000000e+000 3.721982e-001
         vertex 1.389063e+000 2.857500e+001 3.721982e-001
         vertex 1.604039e+000 2.857500e+001 2.602886e-001
      endloop
   endfacet
   facet normal -4.487919e-001 0.000000e+000 -8.936363e-001
      outer loop
         vertex 1.389063e+000 0.000000e+000 3.721982e-001
         vertex 1.604039e+000 2.857500e+001 2.602886e-001
         vertex 1.604039e+000 0.000000e+000 2.602886e-001
      endloop
   endfacet
   facet normal -3.960873e-001 0.000000e+000 -9.182128e-001
      outer loop
         vertex 1.604039e+000 0.000000e+000 2.602886e-001
         vertex 1.604039e+000 2.857500e+001 2.602886e-001
         vertex 1.827950e+000 2.857500e+001 1.675414e-001
      endloop
   endfacet
   facet normal -3.691985e-001 0.000000e+000 -9.293506e-001
      outer loop
         vertex 1.604039e+000 0.000000e+000 2.602886e-001
         vertex 1.827950e+000 2.857500e+001 1.675414e-001
         vertex 1.827950e+000 0.000000e+000 1.675414e-001
      endloop
   endfacet
   facet normal -3.145525e-001 0.000000e+000 -9.492401e-001
      outer loop
         vertex 1.827950e+000 0.000000e+000 1.675414e-001
         vertex 1.827950e+000 2.857500e+001 1.675414e-001
         vertex 2.059093e+000 2.857500e+001 9.466242e-002
      endloop
   endfacet
   facet normal -2.867954e-001 0.000000e+000 -9.579919e-001
      outer loop
         vertex 1.827950e+000 0.000000e+000 1.675414e-001
         vertex 2.059093e+000 2.857500e+001 9.466242e-002
         vertex 2.059093e+000 0.000000e+000 9.466242e-002
      endloop
   endfacet
   facet normal -2.306239e-001 0.000000e+000 -9.730430e-001
      outer loop
         vertex 2.059093e+000 0.000000e+000 9.466242e-002
         vertex 2.059093e+000 2.857500e+001 9.466242e-002
         vertex 2.295709e+000 2.857500e+001 4.220591e-002
      endloop
   endfacet
   facet normal -2.022095e-001 0.000000e+000 -9.793423e-001
      outer loop
         vertex 2.059093e+000 0.000000e+000 9.466242e-002
         vertex 2.295709e+000 2.857500e+001 4.220591e-002
         vertex 2.295709e+000 0.000000e+000 4.220591e-002
      endloop
   endfacet
   facet normal -1.449400e-001 0.000000e+000 -9.894404e-001
      outer loop
         vertex 2.295709e+000 0.000000e+000 4.220591e-002
         vertex 2.295709e+000 2.857500e+001 4.220591e-002
         vertex 2.535995e+000 2.857500e+001 1.057168e-002
      endloop
   endfacet
   facet normal -1.160848e-001 0.000000e+000 -9.932393e-001
      outer loop
         vertex 2.295709e+000 0.000000e+000 4.220591e-002
         vertex 2.535995e+000 2.857500e+001 1.057168e-002
         vertex 2.535995e+000 0.000000e+000 1.057168e-002
      endloop
   endfacet
   facet normal -5.815303e-002 0.000000e+000 -9.983077e-001
      outer loop
         vertex 2.535995e+000 0.000000e+000 1.057168e-002
         vertex 2.535995e+000 2.857500e+001 1.057168e-002
         vertex 2.778125e+000 2.857500e+001 0.000000e+000
      endloop
   endfacet
   facet normal -2.907651e-002 0.000000e+000 -9.995772e-001
      outer loop
         vertex 2.535995e+000 0.000000e+000 1.057168e-002
         vertex 2.778125e+000 2.857500e+001 0.000000e+000
         vertex 2.778125e+000 0.000000e+000 0.000000e+000
      endloop
   endfacet
   facet normal 2.907651e-002 0.000000e+000 -9.995772e-001
      outer loop
         vertex 2.778125e+000 0.000000e+000 0.000000e+000
         vertex 2.778125e+000 2.857500e+001 0.000000e+000
         vertex 3.020254e+000 2.857500e+001 1.057168e-002
      endloop
   endfacet
   facet normal 0.000000e+000 1.000000e+000 0.000000e+000
      outer loop
         vertex 2.295709e+000 2.857500e+001 5.514044e+000
         vertex 2.535995e+000 2.857500e+001 5.545679e+000
         vertex 2.778125e+000 2.857500e+001 2.778125e+000
      endloop
   endfacet
   facet normal 0.000000e+000 1.000000e+000 0.000000e+000
      outer loop
         vertex 2.778125e+000 2.857500e+001 2.778125e+000
         vertex 2.535995e+000 2.857500e+001 5.545679e+000
         vertex 2.778125e+000 2.857500e+001 5.556250e+000
      endloop
   endfacet
   facet normal 0.000000e+000 1.000000e+000 0.000000e+000
      outer loop
         vertex 2.778125e+000 2.857500e+001 2.778125e+000
         vertex 2.778125e+000 2.857500e+001 5.556250e+000
         vertex 3.020254e+000 2.857500e+001 5.545679e+000
      endloop
   endfacet
   facet normal 0.000000e+000 1.000000e+000 0.000000e+000
      outer loop
         vertex 1.604039e+000 2.857500e+001 5.295961e+000
         vertex 1.827950e+000 2.857500e+001 5.388709e+000
         vertex 2.778125e+000 2.857500e+001 2.778125e+000
      endloop
   endfacet
   facet normal 0.000000e+000 1.000000e+000 0.000000e+000
      outer loop
         vertex 2.778125e+000 2.857500e+001 2.778125e+000
         vertex 1.827950e+000 2.857500e+001 5.388709e+000
         vertex 2.059093e+000 2.857500e+001 5.461587e+000
      endloop
   endfacet
   facet normal 0.000000e+000 1.000000e+000 0.000000e+000
      outer loop
         vertex 2.778125e+000 2.857500e+001 2.778125e+000
         vertex 2.059093e+000 2.857500e+001 5.461587e+000
         vertex 2.295709e+000 2.857500e+001 5.514044e+000
      endloop
   endfacet
   facet normal 0.000000e+000 1.000000e+000 0.000000e+000
      outer loop
         vertex 9.923807e-001 2.857500e+001 4.906292e+000
         vertex 1.184658e+000 2.857500e+001 5.053832e+000
         vertex 2.778125e+000 2.857500e+001 2.778125e+000
      endloop
   endfacet
   facet normal 0.000000e+000 1.000000e+000 0.000000e+000
      outer loop
         vertex 2.778125e+000 2.857500e+001 2.778125e+000
         vertex 1.184658e+000 2.857500e+001 5.053832e+000
         vertex 1.389063e+000 2.857500e+001 5.184052e+000
      endloop
   endfacet
   facet normal 0.000000e+000 1.000000e+000 0.000000e+000
      outer loop
         vertex 2.778125e+000 2.857500e+001 2.778125e+000
         vertex 1.389063e+000 2.857500e+001 5.184052e+000
         vertex 1.604039e+000 2.857500e+001 5.295961e+000
      endloop
   endfacet
   facet normal 0.000000e+000 1.000000e+000 0.000000e+000
      outer loop
         vertex 5.024183e-001 2.857500e+001 4.371592e+000
         vertex 6.499577e-001 2.857500e+001 4.563869e+000
         vertex 2.778125e+000 2.857500e+001 2.778125e+000
      endloop
   endfacet
   facet normal 0.000000e+000 1.000000e+000 0.000000e+000
      outer loop
         vertex 2.778125e+000 2.857500e+001 2.778125e+000
         vertex 6.499577e-001 2.857500e+001 4.563869e+000
         vertex 8.136940e-001 2.857500e+001 4.742556e+000
      endloop
   endfacet
   facet normal 0.000000e+000 1.000000e+000 0.000000e+000
      outer loop
         vertex 2.778125e+000 2.857500e+001 2.778125e+000
         vertex 8.136940e-001 2.857500e+001 4.742556e+000
         vertex 9.923807e-001 2.857500e+001 4.906292e+000
      endloop
   endfacet
   facet normal 0.000000e+000 1.000000e+000 0.000000e+000
      outer loop
         vertex 1.675414e-001 2.857500e+001 3.728300e+000
         vertex 2.602886e-001 2.857500e+001 3.952211e+000
         vertex 2.778125e+000 2.857500e+001 2.778125e+000
      endloop
   endfacet
   facet normal 0.000000e+000 1.000000e+000 0.000000e+000
      outer loop
         vertex 2.778125e+000 2.857500e+001 2.778125e+000
         vertex 2.602886e-001 2.857500e+001 3.952211e+000
         vertex 3.721982e-001 2.857500e+001 4.167188e+000
      endloop
   endfacet
   facet normal 0.000000e+000 1.000000e+000 0.000000e+000
      outer loop
         vertex 2.778125e+000 2.857500e+001 2.778125e+000
         vertex 3.721982e-001 2.857500e+001 4.167188e+000
         vertex 5.024183e-001 2.857500e+001 4.371592e+000
      endloop
   endfacet
   facet normal 0.000000e+000 1.000000e+000 0.000000e+000
      outer loop
         vertex 1.057168e-002 2.857500e+001 3.020254e+000
         vertex 4.220591e-002 2.857500e+001 3.260541e+000
         vertex 2.778125e+000 2.857500e+001 2.778125e+000
      endloop
   endfacet
   facet normal 0.000000e+000 1.000000e+000 0.000000e+000
      outer loop
         vertex 2.778125e+000 2.857500e+001 2.778125e+000
         vertex 4.220591e-002 2.857500e+001 3.260541e+000
         vertex 9.466242e-002 2.857500e+001 3.497157e+000
      endloop
   endfacet
   facet normal 0.000000e+000 1.000000e+000 0.000000e+000
      outer loop
         vertex 2.778125e+000 2.857500e+001 2.778125e+000
         vertex 9.466242e-002 2.857500e+001 3.497157e+000
         vertex 1.675414e-001 2.857500e+001 3.728300e+000
      endloop
   endfacet
   facet normal 0.000000e+000 1.000000e+000 0.000000e+000
      outer loop
         vertex 4.220591e-002 2.857500e+001 2.295709e+000
         vertex 1.057168e-002 2.857500e+001 2.535995e+000
         vertex 2.778125e+000 2.857500e+001 2.778125e+000
      endloop
   endfacet
   facet normal 0.000000e+000 1.000000e+000 0.000000e+000
      outer loop
         vertex 2.778125e+000 2.857500e+001 2.778125e+000
         vertex 1.057168e-002 2.857500e+001 2.535995e+000
         vertex 0.000000e+000 2.857500e+001 2.778125e+000
      endloop
   endfacet
   facet normal 0.000000e+000 1.000000e+000 0.000000e+000
      outer loop
         vertex 2.778125e+000 2.857500e+001 2.778125e+000
         vertex 0.000000e+000 2.857500e+001 2.778125e+000
         vertex 1.057168e-002 2.857500e+001 3.020254e+000
      endloop
   endfacet
   facet normal 0.000000e+000 1.000000e+000 0.000000e+000
      outer loop
         vertex 2.602886e-001 2.857500e+001 1.604039e+000
         vertex 1.675414e-001 2.857500e+001 1.827950e+000
         vertex 2.778125e+000 2.857500e+001 2.778125e+000
      endloop
   endfacet
   facet normal 0.000000e+000 1.000000e+000 0.000000e+000
      outer loop
         vertex 2.778125e+000 2.857500e+001 2.778125e+000
         vertex 1.675414e-001 2.857500e+001 1.827950e+000
         vertex 9.466242e-002 2.857500e+001 2.059093e+000
      endloop
   endfacet
   facet normal 0.000000e+000 1.000000e+000 0.000000e+000
      outer loop
         vertex 2.778125e+000 2.857500e+001 2.778125e+000
         vertex 9.466242e-002 2.857500e+001 2.059093e+000
         vertex 4.220591e-002 2.857500e+001 2.295709e+000
      endloop
   endfacet
   facet normal 0.000000e+000 1.000000e+000 0.000000e+000
      outer loop
         vertex 6.499577e-001 2.857500e+001 9.923807e-001
         vertex 5.024183e-001 2.857500e+001 1.184658e+000
         vertex 2.778125e+000 2.857500e+001 2.778125e+000
      endloop
   endfacet
   facet normal 0.000000e+000 1.000000e+000 0.000000e+000
      outer loop
         vertex 2.778125e+000 2.857500e+001 2.778125e+000
         vertex 5.024183e-001 2.857500e+001 1.184658e+000
         vertex 3.721982e-001 2.857500e+001 1.389063e+000
      endloop
   endfacet
   facet normal 0.000000e+000 1.000000e+000 0.000000e+000
      outer loop
         vertex 2.778125e+000 2.857500e+001 2.778125e+000
         vertex 3.721982e-001 2.857500e+001 1.389063e+000
         vertex 2.602886e-001 2.857500e+001 1.604039e+000
      endloop
   endfacet
   facet normal 0.000000e+000 1.000000e+000 0.000000e+000
      outer loop
         vertex 1.184658e+000 2.857500e+001 5.024183e-001
         vertex 9.923807e-001 2.857500e+001 6.499577e-001
         vertex 2.778125e+000 2.857500e+001 2.778125e+000
      endloop
   endfacet
   facet normal 0.000000e+000 1.000000e+000 0.000000e+000
      outer loop
         vertex 2.778125e+000 2.857500e+001 2.778125e+000
         vertex 9.923807e-001 2.857500e+001 6.499577e-001
         vertex 8.136940e-001 2.857500e+001 8.136940e-001
      endloop
   endfacet
   facet normal 0.000000e+000 1.000000e+000 0.000000e+000
      outer loop
         vertex 2.778125e+000 2.857500e+001 2.778125e+000
         vertex 8.136940e-001 2.857500e+001 8.136940e-001
         vertex 6.499577e-001 2.857500e+001 9.923807e-001
      endloop
   endfacet
   facet normal 0.000000e+000 1.000000e+000 0.000000e+000
      outer loop
         vertex 1.827950e+000 2.857500e+001 1.675414e-001
         vertex 1.604039e+000 2.857500e+001 2.602886e-001
         vertex 2.778125e+000 2.857500e+001 2.778125e+000
      endloop
   endfacet
   facet normal 0.000000e+000 1.000000e+000 0.000000e+000
      outer loop
         vertex 2.778125e+000 2.857500e+001 2.778125e+000
         vertex 1.604039e+000 2.857500e+001 2.602886e-001
         vertex 1.389063e+000 2.857500e+001 3.721982e-001
      endloop
   endfacet
   facet normal 0.000000e+000 1.000000e+000 0.000000e+000
      outer loop
         vertex 2.778125e+000 2.857500e+001 2.778125e+000
         vertex 1.389063e+000 2.857500e+001 3.721982e-001
         vertex 1.184658e+000 2.857500e+001 5.024183e-001
      endloop
   endfacet
   facet normal 0.000000e+000 1.000000e+000 0.000000e+000
      outer loop
         vertex 2.535995e+000 2.857500e+001 1.057168e-002
         vertex 2.295709e+000 2.857500e+001 4.220591e-002
         vertex 2.778125e+000 2.857500e+001 2.778125e+000
      endloop
   endfacet
   facet normal 0.000000e+000 1.000000e+000 0.000000e+000
      outer loop
         vertex 2.778125e+000 2.857500e+001 2.778125e+000
         vertex 2.295709e+000 2.857500e+001 4.220591e-002
         vertex 2.059093e+000 2.857500e+001 9.466242e-002
      endloop
   endfacet
   facet normal 0.000000e+000 1.000000e+000 0.000000e+000
      outer loop
         vertex 2.778125e+000 2.857500e+001 2.778125e+000
         vertex 2.059093e+000 2.857500e+001 9.466242e-002
         vertex 1.827950e+000 2.857500e+001 1.675414e-001
      endloop
   endfacet
   facet normal 0.000000e+000 1.000000e+000 0.000000e+000
      outer loop
         vertex 3.260541e+000 2.857500e+001 4.220591e-002
         vertex 3.020254e+000 2.857500e+001 1.057168e-002
         vertex 2.778125e+000 2.857500e+001 2.778125e+000
      endloop
   endfacet
   facet normal 0.000000e+000 1.000000e+000 0.000000e+000
      outer loop
         vertex 2.778125e+000 2.857500e+001 2.778125e+000
         vertex 3.020254e+000 2.857500e+001 1.057168e-002
         vertex 2.778125e+000 2.857500e+001 0.000000e+000
      endloop
   endfacet
   facet normal 0.000000e+000 1.000000e+000 0.000000e+000
      outer loop
         vertex 2.778125e+000 2.857500e+001 2.778125e+000
         vertex 2.778125e+000 2.857500e+001 0.000000e+000
         vertex 2.535995e+000 2.857500e+001 1.057168e-002
      endloop
   endfacet
   facet normal 0.000000e+000 1.000000e+000 0.000000e+000
      outer loop
         vertex 3.952211e+000 2.857500e+001 2.602886e-001
         vertex 3.728300e+000 2.857500e+001 1.675414e-001
         vertex 2.778125e+000 2.857500e+001 2.778125e+000
      endloop
   endfacet
   facet normal 0.000000e+000 1.000000e+000 0.000000e+000
      outer loop
         vertex 2.778125e+000 2.857500e+001 2.778125e+000
         vertex 3.728300e+000 2.857500e+001 1.675414e-001
         vertex 3.497157e+000 2.857500e+001 9.466242e-002
      endloop
   endfacet
   facet normal 0.000000e+000 1.000000e+000 0.000000e+000
      outer loop
         vertex 2.778125e+000 2.857500e+001 2.778125e+000
         vertex 3.497157e+000 2.857500e+001 9.466242e-002
         vertex 3.260541e+000 2.857500e+001 4.220591e-002
      endloop
   endfacet
   facet normal 0.000000e+000 1.000000e+000 0.000000e+000
      outer loop
         vertex 4.563869e+000 2.857500e+001 6.499577e-001
         vertex 4.371592e+000 2.857500e+001 5.024183e-001
         vertex 2.778125e+000 2.857500e+001 2.778125e+000
      endloop
   endfacet
   facet normal 0.000000e+000 1.000000e+000 0.000000e+000
      outer loop
         vertex 2.778125e+000 2.857500e+001 2.778125e+000
         vertex 4.371592e+000 2.857500e+001 5.024183e-001
         vertex 4.167188e+000 2.857500e+001 3.721982e-001
      endloop
   endfacet
   facet normal 0.000000e+000 1.000000e+000 0.000000e+000
      outer loop
         vertex 2.778125e+000 2.857500e+001 2.778125e+000
         vertex 4.167188e+000 2.857500e+001 3.721982e-001
         vertex 3.952211e+000 2.857500e+001 2.602886e-001
      endloop
   endfacet
   facet normal 0.000000e+000 1.000000e+000 0.000000e+000
      outer loop
         vertex 5.053832e+000 2.857500e+001 1.184658e+000
         vertex 4.906292e+000 2.857500e+001 9.923807e-001
         vertex 2.778125e+000 2.857500e+001 2.778125e+000
      endloop
   endfacet
   facet normal 0.000000e+000 1.000000e+000 0.000000e+000
      outer loop
         vertex 2.778125e+000 2.857500e+001 2.778125e+000
         vertex 4.906292e+000 2.857500e+001 9.923807e-001
         vertex 4.742556e+000 2.857500e+001 8.136940e-001
      endloop
   endfacet
   facet normal 0.000000e+000 1.000000e+000 0.000000e+000
      outer loop
         vertex 2.778125e+000 2.857500e+001 2.778125e+000
         vertex 4.742556e+000 2.857500e+001 8.136940e-001
         vertex 4.563869e+000 2.857500e+001 6.499577e-001
      endloop
   endfacet
   facet normal 0.000000e+000 1.000000e+000 0.000000e+000
      outer loop
         vertex 5.388709e+000 2.857500e+001 1.827950e+000
         vertex 5.295961e+000 2.857500e+001 1.604039e+000
         vertex 2.778125e+000 2.857500e+001 2.778125e+000
      endloop
   endfacet
   facet normal 0.000000e+000 1.000000e+000 0.000000e+000
      outer loop
         vertex 2.778125e+000 2.857500e+001 2.778125e+000
         vertex 5.295961e+000 2.857500e+001 1.604039e+000
         vertex 5.184052e+000 2.857500e+001 1.389063e+000
      endloop
   endfacet
   facet normal 0.000000e+000 1.000000e+000 0.000000e+000
      outer loop
         vertex 2.778125e+000 2.857500e+001 2.778125e+000
         vertex 5.184052e+000 2.857500e+001 1.389063e+000
         vertex 5.053832e+000 2.857500e+001 1.184658e+000
      endloop
   endfacet
   facet normal 0.000000e+000 1.000000e+000 0.000000e+000
      outer loop
         vertex 5.545679e+000 2.857500e+001 2.535995e+000
         vertex 5.514044e+000 2.857500e+001 2.295709e+000
         vertex 2.778125e+000 2.857500e+001 2.778125e+000
      endloop
   endfacet
   facet normal 0.000000e+000 1.000000e+000 0.000000e+000
      outer loop
         vertex 2.778125e+000 2.857500e+001 2.778125e+000
         vertex 5.514044e+000 2.857500e+001 2.295709e+000
         vertex 5.461587e+000 2.857500e+001 2.059093e+000
      endloop
   endfacet
   facet normal 0.000000e+000 1.000000e+000 0.000000e+000
      outer loop
         vertex 2.778125e+000 2.857500e+001 2.778125e+000
         vertex 5.461587e+000 2.857500e+001 2.059093e+000
         vertex 5.388709e+000 2.857500e+001 1.827950e+000
      endloop
   endfacet
   facet normal 0.000000e+000 1.000000e+000 0.000000e+000
      outer loop
         vertex 5.514044e+000 2.857500e+001 3.260541e+000
         vertex 5.545679e+000 2.857500e+001 3.020254e+000
         vertex 2.778125e+000 2.857500e+001 2.778125e+000
      endloop
   endfacet
   facet normal 0.000000e+000 1.000000e+000 0.000000e+000
      outer loop
         vertex 2.778125e+000 2.857500e+001 2.778125e+000
         vertex 5.545679e+000 2.857500e+001 3.020254e+000
         vertex 5.556250e+000 2.857500e+001 2.778125e+000
      endloop
   endfacet
   facet normal 0.000000e+000 1.000000e+000 0.000000e+000
      outer loop
         vertex 2.778125e+000 2.857500e+001 2.778125e+000
         vertex 5.556250e+000 2.857500e+001 2.778125e+000
         vertex 5.545679e+000 2.857500e+001 2.535995e+000
      endloop
   endfacet
   facet normal 0.000000e+000 1.000000e+000 0.000000e+000
      outer loop
         vertex 5.295961e+000 2.857500e+001 3.952211e+000
         vertex 5.388709e+000 2.857500e+001 3.728300e+000
         vertex 2.778125e+000 2.857500e+001 2.778125e+000
      endloop
   endfacet
   facet normal 0.000000e+000 1.000000e+000 0.000000e+000
      outer loop
         vertex 2.778125e+000 2.857500e+001 2.778125e+000
         vertex 5.388709e+000 2.857500e+001 3.728300e+000
         vertex 5.461587e+000 2.857500e+001 3.497157e+000
      endloop
   endfacet
   facet normal 0.000000e+000 1.000000e+000 0.000000e+000
      outer loop
         vertex 2.778125e+000 2.857500e+001 2.778125e+000
         vertex 5.461587e+000 2.857500e+001 3.497157e+000
         vertex 5.514044e+000 2.857500e+001 3.260541e+000
      endloop
   endfacet
   facet normal 0.000000e+000 1.000000e+000 0.000000e+000
      outer loop
         vertex 4.906292e+000 2.857500e+001 4.563869e+000
         vertex 5.053832e+000 2.857500e+001 4.371592e+000
         vertex 2.778125e+000 2.857500e+001 2.778125e+000
      endloop
   endfacet
   facet normal 0.000000e+000 1.000000e+000 0.000000e+000
      outer loop
         vertex 2.778125e+000 2.857500e+001 2.778125e+000
         vertex 5.053832e+000 2.857500e+001 4.371592e+000
         vertex 5.184052e+000 2.857500e+001 4.167188e+000
      endloop
   endfacet
   facet normal 0.000000e+000 1.000000e+000 0.000000e+000
      outer loop
         vertex 2.778125e+000 2.857500e+001 2.778125e+000
         vertex 5.184052e+000 2.857500e+001 4.167188e+000
         vertex 5.295961e+000 2.857500e+001 3.952211e+000
      endloop
   endfacet
   facet normal 0.000000e+000 1.000000e+000 0.000000e+000
      outer loop
         vertex 4.371592e+000 2.857500e+001 5.053832e+000
         vertex 4.563869e+000 2.857500e+001 4.906292e+000
         vertex 2.778125e+000 2.857500e+001 2.778125e+000
      endloop
   endfacet
   facet normal 0.000000e+000 1.000000e+000 0.000000e+000
      outer loop
         vertex 2.778125e+000 2.857500e+001 2.778125e+000
         vertex 4.563869e+000 2.857500e+001 4.906292e+000
         vertex 4.742556e+000 2.857500e+001 4.742556e+000
      endloop
   endfacet
   facet normal 0.000000e+000 1.000000e+000 0.000000e+000
      outer loop
         vertex 2.778125e+000 2.857500e+001 2.778125e+000
         vertex 4.742556e+000 2.857500e+001 4.742556e+000
         vertex 4.906292e+000 2.857500e+001 4.563869e+000
      endloop
   endfacet
   facet normal 0.000000e+000 1.000000e+000 0.000000e+000
      outer loop
         vertex 3.728300e+000 2.857500e+001 5.388709e+000
         vertex 3.952211e+000 2.857500e+001 5.295961e+000
         vertex 2.778125e+000 2.857500e+001 2.778125e+000
      endloop
   endfacet
   facet normal 0.000000e+000 1.000000e+000 0.000000e+000
      outer loop
         vertex 2.778125e+000 2.857500e+001 2.778125e+000
         vertex 3.952211e+000 2.857500e+001 5.295961e+000
         vertex 4.167188e+000 2.857500e+001 5.184052e+000
      endloop
   endfacet
   facet normal 0.000000e+000 1.000000e+000 0.000000e+000
      outer loop
         vertex 2.778125e+000 2.857500e+001 2.778125e+000
         vertex 4.167188e+000 2.857500e+001 5.184052e+000
         vertex 4.371592e+000 2.857500e+001 5.053832e+000
      endloop
   endfacet
   facet normal 0.000000e+000 1.000000e+000 0.000000e+000
      outer loop
         vertex 3.020254e+000 2.857500e+001 5.545679e+000
         vertex 3.260541e+000 2.857500e+001 5.514044e+000
         vertex 2.778125e+000 2.857500e+001 2.778125e+000
      endloop
   endfacet
   facet normal 0.000000e+000 1.000000e+000 0.000000e+000
      outer loop
         vertex 2.778125e+000 2.857500e+001 2.778125e+000
         vertex 3.260541e+000 2.857500e+001 5.514044e+000
         vertex 3.497157e+000 2.857500e+001 5.461587e+000
      endloop
   endfacet
   facet normal 0.000000e+000 1.000000e+000 0.000000e+000
      outer loop
         vertex 2.778125e+000 2.857500e+001 2.778125e+000
         vertex 3.497157e+000 2.857500e+001 5.461587e+000
         vertex 3.728300e+000 2.857500e+001 5.388709e+000
      endloop
   endfacet
   facet normal 0.000000e+000 -1.000000e+000 0.000000e+000
      outer loop
         vertex 3.260541e+000 0.000000e+000 5.514044e+000
         vertex 3.020254e+000 0.000000e+000 5.545679e+000
         vertex 2.778125e+000 0.000000e+000 2.778125e+000
      endloop
   endfacet
   facet normal 0.000000e+000 -1.000000e+000 0.000000e+000
      outer loop
         vertex 2.778125e+000 0.000000e+000 2.778125e+000
         vertex 3.020254e+000 0.000000e+000 5.545679e+000
         vertex 2.778125e+000 0.000000e+000 5.556250e+000
      endloop
   endfacet
   facet normal 0.000000e+000 -1.000000e+000 0.000000e+000
      outer loop
         vertex 2.778125e+000 0.000000e+000 2.778125e+000
         vertex 2.778125e+000 0.000000e+000 5.556250e+000
         vertex 2.535995e+000 0.000000e+000 5.545679e+000
      endloop
   endfacet
   facet normal 0.000000e+000 -1.000000e+000 0.000000e+000
      outer loop
         vertex 3.952211e+000 0.000000e+000 5.295961e+000
         vertex 3.728300e+000 0.000000e+000 5.388709e+000
         vertex 2.778125e+000 0.000000e+000 2.778125e+000
      endloop
   endfacet
   facet normal 0.000000e+000 -1.000000e+000 0.000000e+000
      outer loop
         vertex 2.778125e+000 0.000000e+000 2.778125e+000
         vertex 3.728300e+000 0.000000e+000 5.388709e+000
         vertex 3.497157e+000 0.000000e+000 5.461587e+000
      endloop
   endfacet
   facet normal 0.000000e+000 -1.000000e+000 0.000000e+000
      outer loop
         vertex 2.778125e+000 0.000000e+000 2.778125e+000
         vertex 3.497157e+000 0.000000e+000 5.461587e+000
         vertex 3.260541e+000 0.000000e+000 5.514044e+000
      endloop
   endfacet
   facet normal 0.000000e+000 -1.000000e+000 0.000000e+000
      outer loop
         vertex 4.563869e+000 0.000000e+000 4.906292e+000
         vertex 4.371592e+000 0.000000e+000 5.053832e+000
         vertex 2.778125e+000 0.000000e+000 2.778125e+000
      endloop
   endfacet
   facet normal 0.000000e+000 -1.000000e+000 0.000000e+000
      outer loop
         vertex 2.778125e+000 0.000000e+000 2.778125e+000
         vertex 4.371592e+000 0.000000e+000 5.053832e+000
         vertex 4.167188e+000 0.000000e+000 5.184052e+000
      endloop
   endfacet
   facet normal 0.000000e+000 -1.000000e+000 0.000000e+000
      outer loop
         vertex 2.778125e+000 0.000000e+000 2.778125e+000
         vertex 4.167188e+000 0.000000e+000 5.184052e+000
         vertex 3.952211e+000 0.000000e+000 5.295961e+000
      endloop
   endfacet
   facet normal 0.000000e+000 -1.000000e+000 0.000000e+000
      outer loop
         vertex 5.053832e+000 0.000000e+000 4.371592e+000
         vertex 4.906292e+000 0.000000e+000 4.563869e+000
         vertex 2.778125e+000 0.000000e+000 2.778125e+000
      endloop
   endfacet
   facet normal 0.000000e+000 -1.000000e+000 0.000000e+000
      outer loop
         vertex 2.778125e+000 0.000000e+000 2.778125e+000
         vertex 4.906292e+000 0.000000e+000 4.563869e+000
         vertex 4.742556e+000 0.000000e+000 4.742556e+000
      endloop
   endfacet
   facet normal 0.000000e+000 -1.000000e+000 0.000000e+000
      outer loop
         vertex 2.778125e+000 0.000000e+000 2.778125e+000
         vertex 4.742556e+000 0.000000e+000 4.742556e+000
         vertex 4.563869e+000 0.000000e+000 4.906292e+000
      endloop
   endfacet
   facet normal 0.000000e+000 -1.000000e+000 0.000000e+000
      outer loop
         vertex 5.388709e+000 0.000000e+000 3.728300e+000
         vertex 5.295961e+000 0.000000e+000 3.952211e+000
         vertex 2.778125e+000 0.000000e+000 2.778125e+000
      endloop
   endfacet
   facet normal 0.000000e+000 -1.000000e+000 0.000000e+000
      outer loop
         vertex 2.778125e+000 0.000000e+000 2.778125e+000
         vertex 5.295961e+000 0.000000e+000 3.952211e+000
         vertex 5.184052e+000 0.000000e+000 4.167188e+000
      endloop
   endfacet
   facet normal 0.000000e+000 -1.000000e+000 0.000000e+000
      outer loop
         vertex 2.778125e+000 0.000000e+000 2.778125e+000
         vertex 5.184052e+000 0.000000e+000 4.167188e+000
         vertex 5.053832e+000 0.000000e+000 4.371592e+000
      endloop
   endfacet
   facet normal 0.000000e+000 -1.000000e+000 0.000000e+000
      outer loop
         vertex 5.545679e+000 0.000000e+000 3.020254e+000
         vertex 5.514044e+000 0.000000e+000 3.260541e+000
         vertex 2.778125e+000 0.000000e+000 2.778125e+000
      endloop
   endfacet
   facet normal 0.000000e+000 -1.000000e+000 0.000000e+000
      outer loop
         vertex 2.778125e+000 0.000000e+000 2.778125e+000
         vertex 5.514044e+000 0.000000e+000 3.260541e+000
         vertex 5.461587e+000 0.000000e+000 3.497157e+000
      endloop
   endfacet
   facet normal 0.000000e+000 -1.000000e+000 0.000000e+000
      outer loop
         vertex 2.778125e+000 0.000000e+000 2.778125e+000
         vertex 5.461587e+000 0.000000e+000 3.497157e+000
         vertex 5.388709e+000 0.000000e+000 3.728300e+000
      endloop
   endfacet
   facet normal 0.000000e+000 -1.000000e+000 0.000000e+000
      outer loop
         vertex 5.514044e+000 0.000000e+000 2.295709e+000
         vertex 5.545679e+000 0.000000e+000 2.535995e+000
         vertex 2.778125e+000 0.000000e+000 2.778125e+000
      endloop
   endfacet
   facet normal 0.000000e+000 -1.000000e+000 0.000000e+000
      outer loop
         vertex 2.778125e+000 0.000000e+000 2.778125e+000
         vertex 5.545679e+000 0.000000e+000 2.535995e+000
         vertex 5.556250e+000 0.000000e+000 2.778125e+000
      endloop
   endfacet
   facet normal 0.000000e+000 -1.000000e+000 0.000000e+000
      outer loop
         vertex 2.778125e+000 0.000000e+000 2.778125e+000
         vertex 5.556250e+000 0.000000e+000 2.778125e+000
         vertex 5.545679e+000 0.000000e+000 3.020254e+000
      endloop
   endfacet
   facet normal 0.000000e+000 -1.000000e+000 0.000000e+000
      outer loop
         vertex 5.295961e+000 0.000000e+000 1.604039e+000
         vertex 5.388709e+000 0.000000e+000 1.827950e+000
         vertex 2.778125e+000 0.000000e+000 2.778125e+000
      endloop
   endfacet
   facet normal 0.000000e+000 -1.000000e+000 0.000000e+000
      outer loop
         vertex 2.778125e+000 0.000000e+000 2.778125e+000
         vertex 5.388709e+000 0.000000e+000 1.827950e+000
         vertex 5.461587e+000 0.000000e+000 2.059093e+000
      endloop
   endfacet
   facet normal 0.000000e+000 -1.000000e+000 0.000000e+000
      outer loop
         vertex 2.778125e+000 0.000000e+000 2.778125e+000
         vertex 5.461587e+000 0.000000e+000 2.059093e+000
         vertex 5.514044e+000 0.000000e+000 2.295709e+000
      endloop
   endfacet
   facet normal 0.000000e+000 -1.000000e+000 0.000000e+000
      outer loop
         vertex 4.906292e+000 0.000000e+000 9.923807e-001
         vertex 5.053832e+000 0.000000e+000 1.184658e+000
         vertex 2.778125e+000 0.000000e+000 2.778125e+000
      endloop
   endfacet
   facet normal 0.000000e+000 -1.000000e+000 0.000000e+000
      outer loop
         vertex 2.778125e+000 0.000000e+000 2.778125e+000
         vertex 5.053832e+000 0.000000e+000 1.184658e+000
         vertex 5.184052e+000 0.000000e+000 1.389063e+000
      endloop
   endfacet
   facet normal 0.000000e+000 -1.000000e+000 0.000000e+000
      outer loop
         vertex 2.778125e+000 0.000000e+000 2.778125e+000
         vertex 5.184052e+000 0.000000e+000 1.389063e+000
         vertex 5.295961e+000 0.000000e+000 1.604039e+000
      endloop
   endfacet
   facet normal 0.000000e+000 -1.000000e+000 0.000000e+000
      outer loop
         vertex 4.371592e+000 0.000000e+000 5.024183e-001
         vertex 4.563869e+000 0.000000e+000 6.499577e-001
         vertex 2.778125e+000 0.000000e+000 2.778125e+000
      endloop
   endfacet
   facet normal 0.000000e+000 -1.000000e+000 0.000000e+000
      outer loop
         vertex 2.778125e+000 0.000000e+000 2.778125e+000
         vertex 4.563869e+000 0.000000e+000 6.499577e-001
         vertex 4.742556e+000 0.000000e+000 8.136940e-001
      endloop
   endfacet
   facet normal 0.000000e+000 -1.000000e+000 0.000000e+000
      outer loop
         vertex 2.778125e+000 0.000000e+000 2.778125e+000
         vertex 4.742556e+000 0.000000e+000 8.136940e-001
         vertex 4.906292e+000 0.000000e+000 9.923807e-001
      endloop
   endfacet
   facet normal 0.000000e+000 -1.000000e+000 0.000000e+000
      outer loop
         vertex 3.728300e+000 0.000000e+000 1.675414e-001
         vertex 3.952211e+000 0.000000e+000 2.602886e-001
         vertex 2.778125e+000 0.000000e+000 2.778125e+000
      endloop
   endfacet
   facet normal 0.000000e+000 -1.000000e+000 0.000000e+000
      outer loop
         vertex 2.778125e+000 0.000000e+000 2.778125e+000
         vertex 3.952211e+000 0.000000e+000 2.602886e-001
         vertex 4.167188e+000 0.000000e+000 3.721982e-001
      endloop
   endfacet
   facet normal 0.000000e+000 -1.000000e+000 0.000000e+000
      outer loop
         vertex 2.778125e+000 0.000000e+000 2.778125e+000
         vertex 4.167188e+000 0.000000e+000 3.721982e-001
         vertex 4.371592e+000 0.000000e+000 5.024183e-001
      endloop
   endfacet
   facet normal 0.000000e+000 -1.000000e+000 0.000000e+000
      outer loop
         vertex 3.020254e+000 0.000000e+000 1.057168e-002
         vertex 3.260541e+000 0.000000e+000 4.220591e-002
         vertex 2.778125e+000 0.000000e+000 2.778125e+000
      endloop
   endfacet
   facet normal 0.000000e+000 -1.000000e+000 0.000000e+000
      outer loop
         vertex 2.778125e+000 0.000000e+000 2.778125e+000
         vertex 3.260541e+000 0.000000e+000 4.220591e-002
         vertex 3.497157e+000 0.000000e+000 9.466242e-002
      endloop
   endfacet
   facet normal 0.000000e+000 -1.000000e+000 0.000000e+000
      outer loop
         vertex 2.778125e+000 0.000000e+000 2.778125e+000
         vertex 3.497157e+000 0.000000e+000 9.466242e-002
         vertex 3.728300e+000 0.000000e+000 1.675414e-001
      endloop
   endfacet
   facet normal 0.000000e+000 -1.000000e+000 0.000000e+000
      outer loop
         vertex 2.295709e+000 0.000000e+000 4.220591e-002
         vertex 2.535995e+000 0.000000e+000 1.057168e-002
         vertex 2.778125e+000 0.000000e+000 2.778125e+000
      endloop
   endfacet
   facet normal 0.000000e+000 -1.000000e+000 0.000000e+000
      outer loop
         vertex 2.778125e+000 0.000000e+000 2.778125e+000
         vertex 2.535995e+000 0.000000e+000 1.057168e-002
         vertex 2.778125e+000 0.000000e+000 0.000000e+000
      endloop
   endfacet
   facet normal 0.000000e+000 -1.000000e+000 0.000000e+000
      outer loop
         vertex 2.778125e+000 0.000000e+000 2.778125e+000
         vertex 2.778125e+000 0.000000e+000 0.000000e+000
         vertex 3.020254e+000 0.000000e+000 1.057168e-002
      endloop
   endfacet
   facet normal 0.000000e+000 -1.000000e+000 0.000000e+000
      outer loop
         vertex 1.604039e+000 0.000000e+000 2.602886e-001
         vertex 1.827950e+000 0.000000e+000 1.675414e-001
         vertex 2.778125e+000 0.000000e+000 2.778125e+000
      endloop
   endfacet
   facet normal 0.000000e+000 -1.000000e+000 0.000000e+000
      outer loop
         vertex 2.778125e+000 0.000000e+000 2.778125e+000
         vertex 1.827950e+000 0.000000e+000 1.675414e-001
         vertex 2.059093e+000 0.000000e+000 9.466242e-002
      endloop
   endfacet
   facet normal 0.000000e+000 -1.000000e+000 0.000000e+000
      outer loop
         vertex 2.778125e+000 0.000000e+000 2.778125e+000
         vertex 2.059093e+000 0.000000e+000 9.466242e-002
         vertex 2.295709e+000 0.000000e+000 4.220591e-002
      endloop
   endfacet
   facet normal 0.000000e+000 -1.000000e+000 0.000000e+000
      outer loop
         vertex 9.923807e-001 0.000000e+000 6.499577e-001
         vertex 1.184658e+000 0.000000e+000 5.024183e-001
         vertex 2.778125e+000 0.000000e+000 2.778125e+000
      endloop
   endfacet
   facet normal 0.000000e+000 -1.000000e+000 0.000000e+000
      outer loop
         vertex 2.778125e+000 0.000000e+000 2.778125e+000
         vertex 1.184658e+000 0.000000e+000 5.024183e-001
         vertex 1.389063e+000 0.000000e+000 3.721982e-001
      endloop
   endfacet
   facet normal 0.000000e+000 -1.000000e+000 0.000000e+000
      outer loop
         vertex 2.778125e+000 0.000000e+000 2.778125e+000
         vertex 1.389063e+000 0.000000e+000 3.721982e-001
         vertex 1.604039e+000 0.000000e+000 2.602886e-001
      endloop
   endfacet
   facet normal 0.000000e+000 -1.000000e+000 0.000000e+000
      outer loop
         vertex 5.024183e-001 0.000000e+000 1.184658e+000
         vertex 6.499577e-001 0.000000e+000 9.923807e-001
         vertex 2.778125e+000 0.000000e+000 2.778125e+000
      endloop
   endfacet
   facet normal 0.000000e+000 -1.000000e+000 0.000000e+000
      outer loop
         vertex 2.778125e+000 0.000000e+000 2.778125e+000
         vertex 6.499577e-001 0.000000e+000 9.923807e-001
         vertex 8.136940e-001 0.000000e+000 8.136940e-001
      endloop
   endfacet
   facet normal 0.000000e+000 -1.000000e+000 0.000000e+000
      outer loop
         vertex 2.778125e+000 0.000000e+000 2.778125e+000
         vertex 8.136940e-001 0.000000e+000 8.136940e-001
         vertex 9.923807e-001 0.000000e+000 6.499577e-001
      endloop
   endfacet
   facet normal 0.000000e+000 -1.000000e+000 0.000000e+000
      outer loop
         vertex 1.675414e-001 0.000000e+000 1.827950e+000
         vertex 2.602886e-001 0.000000e+000 1.604039e+000
         vertex 2.778125e+000 0.000000e+000 2.778125e+000
      endloop
   endfacet
   facet normal 0.000000e+000 -1.000000e+000 0.000000e+000
      outer loop
         vertex 2.778125e+000 0.000000e+000 2.778125e+000
         vertex 2.602886e-001 0.000000e+000 1.604039e+000
         vertex 3.721982e-001 0.000000e+000 1.389063e+000
      endloop
   endfacet
   facet normal 0.000000e+000 -1.000000e+000 0.000000e+000
      outer loop
         vertex 2.778125e+000 0.000000e+000 2.778125e+000
         vertex 3.721982e-001 0.000000e+000 1.389063e+000
         vertex 5.024183e-001 0.000000e+000 1.184658e+000
      endloop
   endfacet
   facet normal 0.000000e+000 -1.000000e+000 0.000000e+000
      outer loop
         vertex 1.057168e-002 0.000000e+000 2.535995e+000
         vertex 4.220591e-002 0.000000e+000 2.295709e+000
         vertex 2.778125e+000 0.000000e+000 2.778125e+000
      endloop
   endfacet
   facet normal 0.000000e+000 -1.000000e+000 0.000000e+000
      outer loop
         vertex 2.778125e+000 0.000000e+000 2.778125e+000
         vertex 4.220591e-002 0.000000e+000 2.295709e+000
         vertex 9.466242e-002 0.000000e+000 2.059093e+000
      endloop
   endfacet
   facet normal 0.000000e+000 -1.000000e+000 0.000000e+000
      outer loop
         vertex 2.778125e+000 0.000000e+000 2.778125e+000
         vertex 9.466242e-002 0.000000e+000 2.059093e+000
         vertex 1.675414e-001 0.000000e+000 1.827950e+000
      endloop
   endfacet
   facet normal 0.000000e+000 -1.000000e+000 0.000000e+000
      outer loop
         vertex 4.220591e-002 0.000000e+000 3.260541e+000
         vertex 1.057168e-002 0.000000e+000 3.020254e+000
         vertex 2.778125e+000 0.000000e+000 2.778125e+000
      endloop
   endfacet
   facet normal 0.000000e+000 -1.000000e+000 0.000000e+000
      outer loop
         vertex 2.778125e+000 0.000000e+000 2.778125e+000
         vertex 1.057168e-002 0.000000e+000 3.020254e+000
         vertex 0.000000e+000 0.000000e+000 2.778125e+000
      endloop
   endfacet
   facet normal 0.000000e+000 -1.000000e+000 0.000000e+000
      outer loop
         vertex 2.778125e+000 0.000000e+000 2.778125e+000
         vertex 0.000000e+000 0.000000e+000 2.778125e+000
         vertex 1.057168e-002 0.000000e+000 2.535995e+000
      endloop
   endfacet
   facet normal 0.000000e+000 -1.000000e+000 0.000000e+000
      outer loop
         vertex 2.602886e-001 0.000000e+000 3.952211e+000
         vertex 1.675414e-001 0.000000e+000 3.728300e+000
         vertex 2.778125e+000 0.000000e+000 2.778125e+000
      endloop
   endfacet
   facet normal 0.000000e+000 -1.000000e+000 0.000000e+000
      outer loop
         vertex 2.778125e+000 0.000000e+000 2.778125e+000
         vertex 1.675414e-001 0.000000e+000 3.728300e+000
         vertex 9.466242e-002 0.000000e+000 3.497157e+000
      endloop
   endfacet
   facet normal 0.000000e+000 -1.000000e+000 0.000000e+000
      outer loop
         vertex 2.778125e+000 0.000000e+000 2.778125e+000
         vertex 9.466242e-002 0.000000e+000 3.497157e+000
         vertex 4.220591e-002 0.000000e+000 3.260541e+000
      endloop
   endfacet
   facet normal 0.000000e+000 -1.000000e+000 0.000000e+000
      outer loop
         vertex 6.499577e-001 0.000000e+000 4.563869e+000
         vertex 5.024183e-001 0.000000e+000 4.371592e+000
         vertex 2.778125e+000 0.000000e+000 2.778125e+000
      endloop
   endfacet
   facet normal 0.000000e+000 -1.000000e+000 0.000000e+000
      outer loop
         vertex 2.778125e+000 0.000000e+000 2.778125e+000
         vertex 5.024183e-001 0.000000e+000 4.371592e+000
         vertex 3.721982e-001 0.000000e+000 4.167188e+000
      endloop
   endfacet
   facet normal 0.000000e+000 -1.000000e+000 0.000000e+000
      outer loop
         vertex 2.778125e+000 0.000000e+000 2.778125e+000
         vertex 3.721982e-001 0.000000e+000 4.167188e+000
         vertex 2.602886e-001 0.000000e+000 3.952211e+000
      endloop
   endfacet
   facet normal 0.000000e+000 -1.000000e+000 0.000000e+000
      outer loop
         vertex 1.184658e+000 0.000000e+000 5.053832e+000
         vertex 9.923807e-001 0.000000e+000 4.906292e+000
         vertex 2.778125e+000 0.000000e+000 2.778125e+000
      endloop
   endfacet
   facet normal 0.000000e+000 -1.000000e+000 0.000000e+000
      outer loop
         vertex 2.778125e+000 0.000000e+000 2.778125e+000
         vertex 9.923807e-001 0.000000e+000 4.906292e+000
         vertex 8.136940e-001 0.000000e+000 4.742556e+000
      endloop
   endfacet
   facet normal 0.000000e+000 -1.000000e+000 0.000000e+000
      outer loop
         vertex 2.778125e+000 0.000000e+000 2.778125e+000
         vertex 8.136940e-001 0.000000e+000 4.742556e+000
         vertex 6.499577e-001 0.000000e+000 4.563869e+000
      endloop
   endfacet
   facet normal 0.000000e+000 -1.000000e+000 0.000000e+000
      outer loop
         vertex 1.827950e+000 0.000000e+000 5.388709e+000
         vertex 1.604039e+000 0.000000e+000 5.295961e+000
         vertex 2.778125e+000 0.000000e+000 2.778125e+000
      endloop
   endfacet
   facet normal 0.000000e+000 -1.000000e+000 0.000000e+000
      outer loop
         vertex 2.778125e+000 0.000000e+000 2.778125e+000
         vertex 1.604039e+000 0.000000e+000 5.295961e+000
         vertex 1.389063e+000 0.000000e+000 5.184052e+000
      endloop
   endfacet
   facet normal 0.000000e+000 -1.000000e+000 0.000000e+000
      outer loop
         vertex 2.778125e+000 0.000000e+000 2.778125e+000
         vertex 1.389063e+000 0.000000e+000 5.184052e+000
         vertex 1.184658e+000 0.000000e+000 5.053832e+000
      endloop
   endfacet
   facet normal 0.000000e+000 -1.000000e+000 0.000000e+000
      outer loop
         vertex 2.535995e+000 0.000000e+000 5.545679e+000
         vertex 2.295709e+000 0.000000e+000 5.514044e+000
         vertex 2.778125e+000 0.000000e+000 2.778125e+000
      endloop
   endfacet
   facet normal 0.000000e+000 -1.000000e+000 0.000000e+000
      outer loop
         vertex 2.778125e+000 0.000000e+000 2.778125e+000
         vertex 2.295709e+000 0.000000e+000 5.514044e+000
         vertex 2.059093e+000 0.000000e+000 5.461587e+000
      endloop
   endfacet
   facet normal 0.000000e+000 -1.000000e+000 0.000000e+000
      outer loop
         vertex 2.778125e+000 0.000000e+000 2.778125e+000
         vertex 2.059093e+000 0.000000e+000 5.461587e+000
         vertex 1.827950e+000 0.000000e+000 5.388709e+000
      endloop
   endfacet
endsolid